<svg width="22" height="22" viewBox="0 0 22 22" fill="none" xmlns="http://www.w3.org/2000/svg">
<path fill-rule="evenodd" clip-rule="evenodd" d="M13.5128 2.77683L13.7978 3.47516C14.4627 5.10469 16.9667 8.84841 21.4819 10.3367C21.793 10.4393 22.0024 10.7309 22 11.0586C21.9976 11.3862 21.7839 11.6748 21.4713 11.7728C17.1079 13.1399 14.8783 16.6775 13.7483 18.5845L13.3638 19.2334L12.0661 18.4644L12.4505 17.8155C13.449 16.1303 15.4586 12.8773 19.2321 11.043C15.3053 9.11089 13.087 5.72593 12.4011 4.04505L12.1161 3.34672L13.5128 2.77683Z" fill="#030E55"/>
<path fill-rule="evenodd" clip-rule="evenodd" d="M2.03922e-06 10.3197L21.1192 10.3197L21.1192 11.8281L1.90735e-06 11.8281L2.03922e-06 10.3197Z" fill="#030E55"/>
</svg>
