<svg width="24" height="25" viewBox="0 0 24 25" fill="none" xmlns="http://www.w3.org/2000/svg">
<path d="M12.0024 17.3924L7.85237 19.8924C7.66904 20.009 7.47737 20.059 7.27737 20.0424C7.07737 20.0257 6.90237 19.959 6.75237 19.8424C6.60237 19.7257 6.48571 19.58 6.40237 19.4054C6.31904 19.2307 6.30237 19.0347 6.35237 18.8174L7.45237 14.0924L3.77737 10.9174C3.61071 10.7674 3.50671 10.5964 3.46537 10.4044C3.42404 10.2124 3.43637 10.0251 3.50237 9.84238C3.56837 9.65972 3.66837 9.50972 3.80237 9.39238C3.93637 9.27505 4.11971 9.20005 4.35237 9.16738L9.20237 8.74238L11.0774 4.29238C11.1607 4.09238 11.29 3.94238 11.4654 3.84238C11.6407 3.74238 11.8197 3.69238 12.0024 3.69238C12.185 3.69238 12.364 3.74238 12.5394 3.84238C12.7147 3.94238 12.844 4.09238 12.9274 4.29238L14.8024 8.74238L19.6524 9.16738C19.8857 9.20072 20.069 9.27572 20.2024 9.39238C20.3357 9.50905 20.4357 9.65905 20.5024 9.84238C20.569 10.0257 20.5817 10.2134 20.5404 10.4054C20.499 10.5974 20.3947 10.768 20.2274 10.9174L16.5524 14.0924L17.6524 18.8174C17.7024 19.034 17.6857 19.2301 17.6024 19.4054C17.519 19.5807 17.4024 19.7264 17.2524 19.8424C17.1024 19.9584 16.9274 20.025 16.7274 20.0424C16.5274 20.0597 16.3357 20.0097 16.1524 19.8924L12.0024 17.3924Z" fill="#FFA534"/>
</svg>
