<svg width="42" height="30" viewBox="0 0 42 30" fill="none" xmlns="http://www.w3.org/2000/svg">
<path d="M35.5833 4.5822C35.5833 3.47713 35.1443 2.41732 34.3629 1.63592C33.5815 0.854514 32.5217 0.415527 31.4166 0.415527H25.1666V4.5822H31.4166V10.103L24.125 19.1655H16.8333V8.74886H8.49996C3.89579 8.74886 0.166626 12.478 0.166626 17.0822V23.3322H4.33329C4.33329 26.7905 7.12496 29.5822 10.5833 29.5822C14.0416 29.5822 16.8333 26.7905 16.8333 23.3322H26.2083L35.5833 11.5614V4.5822ZM10.5833 25.4155C9.43746 25.4155 8.49996 24.478 8.49996 23.3322H12.6666C12.6666 24.478 11.7291 25.4155 10.5833 25.4155ZM12.6666 19.1655H4.33329V17.0822C4.33329 14.7905 6.20829 12.9155 8.49996 12.9155H12.6666V19.1655ZM35.5833 17.0822C32.125 17.0822 29.3333 19.8739 29.3333 23.3322C29.3333 26.7905 32.125 29.5822 35.5833 29.5822C39.0416 29.5822 41.8333 26.7905 41.8333 23.3322C41.8333 19.8739 39.0416 17.0822 35.5833 17.0822ZM35.5833 25.4155C34.4375 25.4155 33.5 24.478 33.5 23.3322C33.5 22.1864 34.4375 21.2489 35.5833 21.2489C36.7291 21.2489 37.6666 22.1864 37.6666 23.3322C37.6666 24.478 36.7291 25.4155 35.5833 25.4155ZM16.8333 6.66553H6.41663V2.49886H16.8333V6.66553Z" fill="white"/>
</svg>
