<svg width="50" height="50" viewBox="0 0 50 50" fill="none" xmlns="http://www.w3.org/2000/svg">
<path d="M41.6667 27.0822H2.08333C1.773 27.0765 1.46533 27.1403 1.18281 27.2688C0.900279 27.3973 0.650032 27.5873 0.450354 27.8249C0.250676 28.0625 0.106614 28.3417 0.0286946 28.6422C-0.0492245 28.9426 -0.0590309 29.2566 -7.86781e-06 29.5614C0.634716 32.8169 2.06427 35.8652 4.16148 38.4349C6.25869 41.0046 8.95853 43.0161 12.0208 44.2905C12.2622 44.3885 12.4581 44.5733 12.5699 44.8085C12.6818 45.0438 12.7014 45.3124 12.625 45.5614C12.416 46.3282 12.3178 47.1209 12.3333 47.9155C12.3333 48.4681 12.5528 48.998 12.9435 49.3887C13.3342 49.7794 13.8641 49.9989 14.4167 49.9989H29.3542C29.9067 49.9989 30.4366 49.7794 30.8273 49.3887C31.218 48.998 31.4375 48.4681 31.4375 47.9155C31.4327 47.1179 31.3135 46.3251 31.0833 45.5614C31.0117 45.3123 31.0336 45.0456 31.1449 44.8116C31.2562 44.5775 31.4491 44.3922 31.6875 44.2905C34.7576 43.0217 37.4658 41.0126 39.5706 38.4425C41.6754 35.8724 43.1112 32.8213 43.75 29.5614C43.809 29.2566 43.7992 28.9426 43.7213 28.6422C43.6434 28.3417 43.4993 28.0625 43.2997 27.8249C43.1 27.5873 42.8497 27.3973 42.5672 27.2688C42.2847 27.1403 41.977 27.0765 41.6667 27.0822ZM49.7292 9.41553L46.2708 1.8322C46.1029 1.45794 45.8614 1.12124 45.5608 0.842096C45.2602 0.562951 44.9065 0.347048 44.5209 0.207205C44.1452 0.0479106 43.7414 -0.0341797 43.3333 -0.0341797C42.9253 -0.0341797 42.5215 0.0479106 42.1458 0.207205L30.2917 5.66554C29.6622 5.94782 29.1705 6.46832 28.9244 7.1128C28.6783 7.75728 28.698 8.47307 28.9792 9.10303L32.875 17.6447C33.0809 18.1011 33.415 18.4878 33.8367 18.7578C34.2583 19.0278 34.7493 19.1695 35.25 19.1655C35.6167 19.168 35.9794 19.0898 36.3125 18.9364L48.1667 13.5614C48.9213 13.2161 49.5089 12.5867 49.8016 11.8102C50.0942 11.0337 50.0682 10.173 49.7292 9.41553ZM18.75 13.5405C18.75 14.3693 19.0792 15.1642 19.6653 15.7502C20.2513 16.3363 21.0462 16.6655 21.875 16.6655C22.7038 16.6655 23.4987 16.3363 24.0847 15.7502C24.6708 15.1642 25 14.3693 25 13.5405C25 12.7117 24.6708 11.9169 24.0847 11.3308C23.4987 10.7448 22.7038 10.4155 21.875 10.4155C21.0462 10.4155 20.2513 10.7448 19.6653 11.3308C19.0792 11.9169 18.75 12.7117 18.75 13.5405ZM22.9167 20.8322C22.9167 21.2426 22.9975 21.6489 23.1545 22.0281C23.3116 22.4072 23.5418 22.7517 23.832 23.0419C24.1221 23.3321 24.4666 23.5623 24.8458 23.7193C25.2249 23.8764 25.6313 23.9572 26.0417 23.9572C26.4521 23.9572 26.8584 23.8764 27.2376 23.7193C27.6167 23.5623 27.9612 23.3321 28.2514 23.0419C28.5416 22.7517 28.7718 22.4072 28.9288 22.0281C29.0858 21.6489 29.1667 21.2426 29.1667 20.8322C29.1667 20.4218 29.0858 20.0155 28.9288 19.6363C28.7718 19.2572 28.5416 18.9127 28.2514 18.6225C27.9612 18.3323 27.6167 18.1021 27.2376 17.9451C26.8584 17.788 26.4521 17.7072 26.0417 17.7072C25.6313 17.7072 25.2249 17.788 24.8458 17.9451C24.4666 18.1021 24.1221 18.3323 23.832 18.6225C23.5418 18.9127 23.3116 19.2572 23.1545 19.6363C22.9975 20.0155 22.9167 20.4218 22.9167 20.8322ZM14.5833 20.8322C14.5833 21.661 14.9126 22.4559 15.4986 23.0419C16.0847 23.628 16.8795 23.9572 17.7083 23.9572C18.5371 23.9572 19.332 23.628 19.918 23.0419C20.5041 22.4559 20.8333 21.661 20.8333 20.8322C20.8333 20.0034 20.5041 19.2085 19.918 18.6225C19.332 18.0364 18.5371 17.7072 17.7083 17.7072C16.8795 17.7072 16.0847 18.0364 15.4986 18.6225C14.9126 19.2085 14.5833 20.0034 14.5833 20.8322Z" fill="white"/>
</svg>
