<svg width="46" height="46" viewBox="0 0 46 46" fill="none" xmlns="http://www.w3.org/2000/svg">
<path d="M35.625 45.9159H39.0833C40.8333 45.9159 42.2708 44.5617 42.4792 42.8534L45.9167 8.52002H35.5V0.0825195H31.3958V8.52002H21.0417L21.6667 13.395C25.2292 14.3742 28.5625 16.145 30.5625 18.1034C33.5625 21.0617 35.625 24.1242 35.625 29.1242V45.9159ZM0.0833321 43.8325V41.7492H31.3958V43.8325C31.3958 44.9575 30.4583 45.9159 29.25 45.9159H2.16667C1.02083 45.9159 0.0833321 44.9575 0.0833321 43.8325ZM31.3958 29.2492C31.3958 12.5825 0.0833321 12.5825 0.0833321 29.2492H31.3958ZM0.0833321 33.4159H31.3333V37.5825H0.0833321V33.4159Z" fill="white"/>
</svg>
