<svg id="Capa_1" enable-background="new 0 0 510 510" height="512" viewBox="0 0 510 510" width="512" xmlns="http://www.w3.org/2000/svg"><g><path d="m488.195 170.2c-45.893-44.235-88.465-72.847-133.978-90.041-36.39-13.753-74.433-20.159-119.722-20.159h-3.697c-52.186-38.723-116.396-60-181.42-60h-36.593v44.554c0 37.967 14.539 74.321 40.283 101.754-25.699 35.269-39.912 78.047-40.275 121.92-.97 116.977 95.557 211.772 211.645 211.772h108.527c18.529 18.723 46.114 30 69.82 30h54.271l-37.5-75 37.5-75h-54.271c-23.7 0-51.286 11.272-69.82 30h-50.18c-21.82 0-41.451-11.897-51.955-30h6.205c53.271 0 97.404-39.877 104.116-91.349 60.814-5.395 114.843-27.905 149.116-79.333l6.947-10.424zm-445.41-140.2c4.013.485 68.271-4.651 138.792 34.017-41.356 8.183-79.096 28.627-108.969 59.204-19.095-21.575-29.823-49.525-29.823-78.667zm360 360h5.729l-22.5 45 22.5 45h-5.729c-26.198 0-60-21.822-60-45s33.802-45 60-45zm-165.75-60h-72.743c6.97-34.19 37.274-60 73.493-60h71.83c.305 0 .609 0 .913-.001-6.966 34.194-37.272 60.001-73.493 60.001zm72.58-90h-71.83c-57.898 0-105 47.103-105 105v15h65.139c12.529 35.399 46.439 60 84.861 60h32.06c-2.746 9.9-2.747 20.097 0 30h-90.407c-100.326 0-182.469-82.006-181.646-181.524.808-97.591 79.937-178.476 179.993-178.476 8.112.405 51.957-2.482 100.207 11.389-29.852 41.461-32.708 95.485-11.216 138.599-.72.004-1.434.012-2.161.012zm35.691-1.921c-25.394-37.996-23.498-89.874 7.552-126.163 35.137 14.765 68.956 37.598 105.024 70.921-27.83 34.735-68.356 50.217-112.576 55.242z"/><path d="m357.785 165h30v30h-30z"/></g></svg>