<svg width="26" height="26" viewBox="0 0 26 26" fill="none" xmlns="http://www.w3.org/2000/svg">
<path d="M24.2503 24.25L18.8215 18.8212M18.8215 18.8212C19.7501 17.8926 20.4867 16.7902 20.9893 15.5769C21.4919 14.3636 21.7505 13.0633 21.7505 11.75C21.7505 10.4367 21.4919 9.13635 20.9893 7.92307C20.4867 6.70978 19.7501 5.60736 18.8215 4.67875C17.8929 3.75014 16.7905 3.01352 15.5772 2.51096C14.3639 2.0084 13.0635 1.74974 11.7503 1.74974C10.437 1.74974 9.13661 2.0084 7.92332 2.51096C6.71004 3.01352 5.60762 3.75014 4.67901 4.67875C2.8036 6.55416 1.75 9.09776 1.75 11.75C1.75 14.4022 2.8036 16.9458 4.67901 18.8212C6.55442 20.6967 9.09802 21.7503 11.7503 21.7503C14.4025 21.7503 16.9461 20.6967 18.8215 18.8212Z" stroke="#222222" stroke-width="2" stroke-linecap="round" stroke-linejoin="round"/>
</svg>
